<svg width="50" height="49" viewBox="0 0 50 49" fill="none" xmlns="http://www.w3.org/2000/svg">
<path fill-rule="evenodd" clip-rule="evenodd" d="M35.843 31.3754L48.9288 44.4616C49.3888 44.9219 49.647 45.546 49.6468 46.1967C49.6466 46.8474 49.3879 47.4714 48.9276 47.9314C48.4673 48.3913 47.8432 48.6496 47.1925 48.6494C46.5418 48.6492 45.9179 48.3904 45.4579 47.9302L32.372 34.844C28.4602 37.8739 23.541 39.2998 18.6151 38.8315C13.6893 38.3632 9.12692 36.0359 5.85606 32.3231C2.5852 28.6102 0.851585 23.7908 1.00789 18.8451C1.16419 13.8994 3.19868 9.19903 6.69746 5.70016C10.1962 2.20129 14.8965 0.166761 19.8421 0.010453C24.7876 -0.145855 29.607 1.5878 33.3197 4.85875C37.0324 8.12969 39.3597 12.6922 39.8279 17.6181C40.2962 22.5441 38.8704 27.4634 35.8405 31.3754H35.843ZM20.4585 34.0534C24.3291 34.0534 28.0411 32.5158 30.778 29.7789C33.5149 27.0419 35.0524 23.3298 35.0524 19.4591C35.0524 15.5885 33.5149 11.8764 30.778 9.13944C28.0411 6.40248 24.3291 4.86487 20.4585 4.86487C16.588 4.86487 12.876 6.40248 10.1391 9.13944C7.40219 11.8764 5.86462 15.5885 5.86462 19.4591C5.86462 23.3298 7.40219 27.0419 10.1391 29.7789C12.876 32.5158 16.588 34.0534 20.4585 34.0534ZM27.7555 21.8915H22.8909V26.7563C22.8909 27.4014 22.6346 28.0201 22.1784 28.4762C21.7223 28.9324 21.1036 29.1887 20.4585 29.1887C19.8134 29.1887 19.1948 28.9324 18.7386 28.4762C18.2825 28.0201 18.0262 27.4014 18.0262 26.7563V21.8915H13.1616C12.5165 21.8915 11.8978 21.6353 11.4417 21.1791C10.9855 20.7229 10.7293 20.1043 10.7293 19.4591C10.7293 18.814 10.9855 18.1954 11.4417 17.7392C11.8978 17.283 12.5165 17.0268 13.1616 17.0268H18.0262V12.162C18.0262 11.5169 18.2825 10.8982 18.7386 10.4421C19.1948 9.9859 19.8134 9.72963 20.4585 9.72963C21.1036 9.72963 21.7223 9.9859 22.1784 10.4421C22.6346 10.8982 22.8909 11.5169 22.8909 12.162V17.0268H27.7555C28.4006 17.0268 29.0192 17.283 29.4754 17.7392C29.9315 18.1954 30.1878 18.814 30.1878 19.4591C30.1878 20.1043 29.9315 20.7229 29.4754 21.1791C29.0192 21.6353 28.4006 21.8915 27.7555 21.8915Z" fill="#212C40"/>
</svg>
